<?xml version="1.0" encoding="utf-8"?>
<!-- Generator: Adobe Illustrator 18.1.1, SVG Export Plug-In . SVG Version: 6.00 Build 0)  -->
<svg version="1.1" id="Layer_1" xmlns="http://www.w3.org/2000/svg" xmlns:xlink="http://www.w3.org/1999/xlink" x="0px" y="0px"
	 viewBox="0 0 216 2376" enable-background="new 0 0 216 2376" xml:space="preserve">
<g>
	<polygon fill="#FFFFFF" points="116.3,176.2 108.5,184 100.7,176.2 99.3,177.6 108.5,186.8 117.7,177.6 	"/>
</g>
<g>
	<rect x="96.7" y="27" fill="#FFFFFF" width="23.6" height="3"/>
	<rect x="96.7" y="34" fill="#FFFFFF" width="23.6" height="3"/>
	<rect x="96.7" y="41" fill="#FFFFFF" width="23.6" height="3"/>
</g>
<path fill="#051D24" d="M119.7,598H97.2c-1.9,0-3.4,1.5-3.4,3.4v22.5c0,1.9,1.5,3.4,3.4,3.4h22.5c1.9,0,3.4-1.5,3.4-3.4v-22.5
	C123.1,599.5,121.6,598,119.7,598z M114.1,602.5c0-0.6,0.5-1.1,1.1-1.1h3.4c0.6,0,1.1,0.5,1.1,1.1v3.4c0,0.6-0.5,1.1-1.1,1.1h-3.4
	c-0.6,0-1.1-0.5-1.1-1.1V602.5z M107.4,607.1c4-0.8,7.4,2.7,6.6,6.6c-0.4,2.2-2.2,4-4.4,4.4c-4,0.8-7.4-2.7-6.6-6.6
	C103.4,609.3,105.2,607.5,107.4,607.1z M119.8,622.8c0,0.6-0.5,1.1-1.1,1.1H98.4c-0.6,0-1.1-0.5-1.1-1.1v-12.4h2.5
	c-0.5,2-0.4,4.3,0.9,6.6c1.4,2.5,4,4.3,6.8,4.6c5.4,0.6,10-3.7,10-9c0-0.8-0.1-1.5-0.3-2.3h2.5V622.8z"/>
<g>
	<path fill="#051D24" d="M120.1,317.9c0.4,8.4-5.9,17.9-17.1,17.9c-3.4,0-6.5-1-9.2-2.7c3.2,0.4,6.4-0.5,8.9-2.5
		c-2.6,0-4.8-1.8-5.6-4.2c0.9,0.2,1.9,0.1,2.7-0.1c-2.9-0.6-4.9-3.2-4.8-6c0.8,0.5,1.7,0.7,2.7,0.8c-2.7-1.8-3.4-5.3-1.9-8
		c3,3.6,7.4,6,12.4,6.3c-0.9-3.8,2-7.4,5.8-7.4c1.7,0,3.3,0.7,4.4,1.9c1.4-0.3,2.7-0.8,3.8-1.5c-0.4,1.4-1.4,2.6-2.6,3.3
		c1.2-0.1,2.4-0.5,3.4-0.9C122.3,316,121.3,317.1,120.1,317.9"/>
</g>
<g>
	<path fill="#051D24" d="M115.2,459h-3.2c-1.1,0-1.4,0.5-1.4,1.6v2.8h4.5l-0.4,4.9h-4.1v14.8h-5.9v-14.7h-3.1v-5h3.1v-3.9
		c0-3.7,2-5.6,6.4-5.6h4.1V459z"/>
</g>
</svg>
